<svg width="41" height="33" xmlns="http://www.w3.org/2000/svg"><g fill="none" fill-rule="evenodd"><g fill-rule="nonzero"><circle fill="#25D366" cx="15" cy="15" r="15"/><path d="M15.038 22.845h-.004a8.99 8.99 0 01-4.283-1.085L6 23l1.271-4.622a8.87 8.87 0 01-1.196-4.46C6.077 9.002 10.098 5 15.038 5a8.926 8.926 0 016.34 2.616A8.844 8.844 0 0124 13.926c-.002 4.917-4.02 8.917-8.962 8.92zm-4.067-2.7l.272.16a7.465 7.465 0 003.792 1.034h.003c4.105 0 7.447-3.326 7.449-7.414 0-1.98-.774-3.843-2.18-5.244a7.416 7.416 0 00-5.266-2.174c-4.11 0-7.451 3.325-7.453 7.412 0 1.401.394 2.765 1.14 3.946l.176.28-.752 2.736 2.82-.736zm8.582-4.098c-.056-.093-.205-.149-.43-.26-.223-.112-1.324-.651-1.53-.725-.205-.075-.354-.112-.503.111-.15.223-.579.725-.71.874-.13.149-.26.167-.485.056-.224-.112-.945-.347-1.8-1.106-.666-.591-1.116-1.321-1.246-1.544-.13-.223-.014-.344.098-.455.1-.1.224-.26.336-.39.112-.13.15-.224.224-.372.074-.15.037-.28-.019-.39-.056-.112-.504-1.21-.69-1.656-.182-.434-.367-.375-.504-.382a8.937 8.937 0 00-.43-.008.824.824 0 00-.597.279c-.205.223-.783.762-.783 1.859s.802 2.157.914 2.305c.112.15 1.58 2.4 3.826 3.366.534.23.951.366 1.276.47a3.08 3.08 0 001.41.087c.431-.064 1.326-.539 1.512-1.06.187-.52.187-.966.13-1.059z" fill="#FDFDFD"/></g><g transform="translate(21 13)"><circle stroke="#00B0DB" stroke-width="2" fill="#fff" cx="9" cy="9" r="10"/><path d="M13 6c-1.562 0-3.25 1.514-4 2.272C8.25 7.514 6.562 6 5 6 3.122 6 2 7.122 2 9s1.122 3 3 3c1.562 0 3.25-1.514 4-2.272.75.758 2.438 2.272 4 2.272 1.879 0 3-1.122 3-3s-1.122-3-3-3zm-8 5c-1.327 0-2-.673-2-2s.673-2 2-2c1.1 0 2.56 1.24 3.314 2-.753.762-2.21 2-3.314 2zm8 0c-1.1 0-2.56-1.24-3.314-2 .75-.761 2.21-2 3.314-2 1.327 0 2 .673 2 2s-.673 2-2 2z" fill="#00B0DB"/></g></g></svg>